<?xml version="1.0" encoding="UTF-8"?>
<svg xmlns="http://www.w3.org/2000/svg" xmlns:xlink="http://www.w3.org/1999/xlink" viewBox="0 0 24 24" width="24px" height="24px">
<g id="surface29578937">
<rect x="0" y="0" width="24" height="24" style="fill:rgb(19.215687%,18.431373%,18.431373%);fill-opacity:1;stroke:none;"/>
<path style=" stroke:none;fill-rule:nonzero;fill:rgb(83.137256%,95.686275%,98.823529%);fill-opacity:1;" d="M 13.007812 14.292969 L 14.992188 16.277344 C 14.691406 16.855469 14.660156 17.429688 14.976562 17.75 L 18.601562 21.371094 C 19.054688 21.828125 20.050781 21.578125 20.8125 20.8125 C 21.578125 20.046875 21.828125 19.054688 21.371094 18.601562 L 17.753906 14.976562 C 17.429688 14.660156 16.855469 14.691406 16.277344 14.992188 L 14.292969 13.007812 Z M 9.199219 2.398438 C 5.445312 2.398438 2.398438 5.445312 2.398438 9.199219 C 2.398438 12.957031 5.445312 16 9.199219 16 C 12.957031 16 16 12.957031 16 9.199219 C 16 5.445312 12.957031 2.398438 9.199219 2.398438 Z M 9.199219 14.398438 C 6.328125 14.398438 4 12.070312 4 9.199219 C 4 6.328125 6.328125 4 9.199219 4 C 12.070312 4 14.398438 6.328125 14.398438 9.199219 C 14.398438 12.070312 12.070312 14.398438 9.199219 14.398438 Z M 9.199219 14.398438 "/>
</g>
</svg>
