<?xml version="1.0" encoding="iso-8859-1"?>
<!-- Generator: Adobe Illustrator 19.0.0, SVG Export Plug-In . SVG Version: 6.00 Build 0)  -->
<svg version="1.1" fill="#fafaea" id="Layer_1" xmlns="http://www.w3.org/2000/svg" xmlns:xlink="http://www.w3.org/1999/xlink" x="0px" y="0px"
	 viewBox="0 0 512 512" style="enable-background:new 0 0 512 512;" xml:space="preserve">
<path style="fill:#FE834D;" d="M416.681,84.426H384l-177.021,32.681v65.362h242.383v-65.362
	C449.362,99.132,434.655,84.426,416.681,84.426z"/>
<path style="fill:#FEA680;" d="M416.681,117.106H206.979V84.426H384C401.974,84.426,416.681,99.132,416.681,117.106z"/>
<path style="fill:#FFC1A6;" d="M416.681,149.787H384v256h32.681c17.974,0,32.681-14.706,32.681-32.681V182.468
	C449.362,164.494,434.655,149.787,416.681,149.787z"/>
<path style="fill:#FFDBCC;" d="M384,149.787H228.766V84.426c0-17.974-14.706-32.681-32.681-32.681H40.851
	c-17.974,0-32.681,14.706-32.681,32.681v288.681c0,17.974,14.706,32.681,32.681,32.681H384c17.974,0,32.681-14.706,32.681-32.681
	V182.468C416.681,164.494,401.974,149.787,384,149.787z"/>
<path style="fill:#ABECEC;" d="M394.894,242.383v196.085l54.469,7.21c32.56-18.835,54.467-54.038,54.467-94.359
	C503.83,291.154,455.059,242.383,394.894,242.383z"/>
<path style="fill:#D5F6F5;" d="M394.894,242.383c42.115,0,76.255,48.771,76.255,108.936c0,29.679-8.307,56.584-21.781,76.231
	l-108.944,18.128c-32.559-18.836-54.467-54.039-54.467-94.359C285.957,291.154,334.728,242.383,394.894,242.383z"/>
<path style="fill:#FEDC3D;" d="M393.017,460.231c0.625,0.011,1.25,0.024,1.877,0.024c19.843,0,38.446-5.307,54.469-14.577
	l-0.001-71.483L384,363.302L393.017,460.231z"/>
<path style="fill:#FFF1B1;" d="M340.426,374.196l-0.002,71.483c16.023,9.269,34.628,14.577,54.47,14.577v-96.953L340.426,374.196z"
	/>
<polygon style="fill:#FFC1A6;" points="422.128,325.174 449.362,374.196 416.681,374.196 384,314.281 "/>
<polygon style="fill:#FFDBCC;" points="405.787,314.281 416.681,374.196 340.426,374.196 367.66,325.174 "/>
<polygon style="fill:#737373;" points="367.66,325.174 422.128,325.174 394.894,276.153 "/>
<path d="M264.177,397.617H40.851c-13.516,0-24.511-10.996-24.511-24.511V84.426c0-13.515,10.995-24.511,24.511-24.511h155.234
	c13.516,0,24.511,10.996,24.511,24.511v65.362c0,4.512,3.658,8.17,8.17,8.17h187.915c13.516,0,24.511,10.996,24.511,24.511v38.134
	c0,4.512,3.658,8.17,8.17,8.17c4.512,0,8.17-3.658,8.17-8.17V117.106c0-22.525-18.325-40.851-40.851-40.851H261.447
	c-4.512,0-8.17,3.658-8.17,8.17s3.658,8.17,8.17,8.17h155.234c13.516,0,24.511,10.996,24.511,24.511v32.703
	c-6.832-5.141-15.321-8.192-24.511-8.192H236.936V84.426c0-22.525-18.325-40.851-40.851-40.851H40.851
	C18.325,43.574,0,61.901,0,84.426v288.681c0,22.525,18.325,40.851,40.851,40.851h223.326c4.512,0,8.17-3.658,8.17-8.17
	C272.347,401.275,268.689,397.617,264.177,397.617z"/>
<circle cx="106.213" cy="149.787" r="8.17"/>
<circle cx="73.532" cy="117.106" r="8.17"/>
<path d="M394.894,234.213c-64.573,0-117.106,52.533-117.106,117.106s52.533,117.106,117.106,117.106S512,415.892,512,351.319
	S459.467,234.213,394.894,234.213z M372.467,333.345h44.853l18.156,32.681h-81.165L372.467,333.345z M381.545,317.004l13.349-24.028
	l13.349,24.028H381.545z M403.064,382.366h38.128l0.001,58.433c-11.584,6.019-24.476,9.852-38.129,10.952V382.366z M348.596,382.366
	h38.128v69.387c-13.653-1.1-26.546-4.935-38.13-10.954L348.596,382.366z M457.533,430.191l-0.001-55.995
	c0-1.389-0.354-2.754-1.028-3.967l-27.184-48.93c-0.024-0.042-27.284-49.113-27.284-49.113c-1.441-2.594-4.176-4.203-7.142-4.203
	c-2.966,0-5.701,1.609-7.142,4.203l-27.261,49.069c-0.024,0.042-27.207,48.973-27.207,48.973c-0.674,1.214-1.028,2.58-1.028,3.967
	l-0.002,55.994c-23.215-18.477-38.125-46.963-38.125-78.871c0-55.563,45.203-100.766,100.766-100.766S495.66,295.756,495.66,351.319
	C495.66,383.227,480.748,411.714,457.533,430.191z"/>
<g>
</g>
<g>
</g>
<g>
</g>
<g>
</g>
<g>
</g>
<g>
</g>
<g>
</g>
<g>
</g>
<g>
</g>
<g>
</g>
<g>
</g>
<g>
</g>
<g>
</g>
<g>
</g>
<g>
</g>
</svg>
