<?xml version="1.0" encoding="iso-8859-1"?>
<!-- Generator: Adobe Illustrator 16.0.0, SVG Export Plug-In . SVG Version: 6.00 Build 0)  -->
<!DOCTYPE svg PUBLIC "-//W3C//DTD SVG 1.1//EN" "http://www.w3.org/Graphics/SVG/1.1/DTD/svg11.dtd">
<svg version="1.1" id="Capa_1"  xmlns="http://www.w3.org/2000/svg" xmlns:xlink="http://www.w3.org/1999/xlink" x="0px" y="0px"
	 width="23px" height="23px" fill="#f6f174" viewBox="0 0 351.173 351.173" style="enable-background:new 0 0 351.173 351.173;"
	 xml:space="preserve">
<g>
	<g>
		<path d="M303.706,131.163l-0.019-3.057C303.687,57.469,246.221,0,175.59,0C104.958,0,47.49,57.469,47.49,128.106l-0.018,3.233
			c-0.129,13.94-0.387,39.89,10.649,53.698c11.856,14.832,22.113,23.25,30.363,30.006c13.898,11.403,22.278,18.278,29.37,48.314
			c0.976,4.161,4.702,7.098,8.977,7.098h97.515c4.27,0,7.998-2.942,8.977-7.098c7.14-30.234,16.495-37.92,30.648-49.552
			c8.533-7.001,18.195-14.939,29.123-28.829C304.042,171.071,303.826,145.109,303.706,131.163z"/>
		<path d="M224.009,283.534h-96.073c-5.089,0-9.224,4.132-9.224,9.224c0,5.093,4.134,9.224,9.224,9.224h96.073
			c5.093,0,9.224-4.131,9.224-9.224C233.233,287.666,229.102,283.534,224.009,283.534z"/>
		<path d="M224.009,308.13h-96.073c-5.089,0-9.224,4.132-9.224,9.224c0,5.093,4.134,9.224,9.224,9.224h96.073
			c5.093,0,9.224-4.131,9.224-9.224C233.233,312.262,229.102,308.13,224.009,308.13z"/>
		<path d="M207.1,332.726h-62.255c-5.089,0-9.223,4.132-9.223,9.224s4.134,9.224,9.223,9.224H207.1c5.092,0,9.224-4.132,9.224-9.224
			S212.192,332.726,207.1,332.726z"/>
	</g>
</g>
<g>
</g>
<g>
</g>
<g>
</g>
<g>
</g>
<g>
</g>
<g>
</g>
<g>
</g>
<g>
</g>
<g>
</g>
<g>
</g>
<g>
</g>
<g>
</g>
<g>
</g>
<g>
</g>
<g>
</g>
</svg>
